<svg xmlns="http://www.w3.org/2000/svg" xmlns:xlink="http://www.w3.org/1999/xlink" width="600" viewBox="0 0 450 149.999998" height="200" preserveAspectRatio="xMidYMid meet"><defs><g></g><clipPath id="fb7c3d13de"><path d="M 426.640625 46.769531 L 449.941406 46.769531 L 449.941406 60.753906 L 426.640625 60.753906 Z M 426.640625 46.769531 " clip-rule="nonzero"></path></clipPath><clipPath id="4004ef1067"><path d="M 425.941406 46.082031 L 449.941406 46.082031 L 449.941406 61 L 425.941406 61 Z M 425.941406 46.082031 " clip-rule="nonzero"></path></clipPath><clipPath id="f2aee6b63b"><path d="M 38.316406 62.0625 L 75 62.0625 L 75 98.8125 L 38.316406 98.8125 Z M 38.316406 62.0625 " clip-rule="nonzero"></path></clipPath><clipPath id="539d8915aa"><path d="M 40 62.0625 L 73 62.0625 L 73 98.8125 L 40 98.8125 Z M 40 62.0625 " clip-rule="nonzero"></path></clipPath><clipPath id="da84832b7d"><path d="M 348.71875 64.644531 L 380.179688 64.644531 L 380.179688 96.644531 L 348.71875 96.644531 Z M 348.71875 64.644531 " clip-rule="nonzero"></path></clipPath><clipPath id="6ca9b7cf10"><path d="M 355.257812 63.710938 L 374.175781 63.710938 L 374.175781 97.15625 L 355.257812 97.15625 Z M 355.257812 63.710938 " clip-rule="nonzero"></path></clipPath><clipPath id="0681d8508f"><path d="M 268.0625 63.363281 L 301.8125 63.363281 L 301.8125 97.113281 L 268.0625 97.113281 Z M 268.0625 63.363281 " clip-rule="nonzero"></path></clipPath></defs><g clip-path="url(#fb7c3d13de)"><path fill="#6528f7" d="M 449.992188 55.085938 C 449.996094 55.367188 449.941406 55.660156 449.832031 55.925781 C 449.746094 56.140625 449.628906 56.347656 449.476562 56.542969 C 449.476562 56.542969 449.472656 56.546875 449.472656 56.546875 C 449.359375 56.695312 449.230469 56.832031 449.082031 56.964844 C 448.957031 57.078125 448.824219 57.1875 448.683594 57.285156 C 448.148438 57.664062 447.597656 57.914062 447.179688 58.089844 C 447.175781 58.09375 447.175781 58.09375 447.171875 58.09375 C 446.71875 58.28125 446.238281 58.449219 445.699219 58.609375 C 445.234375 58.746094 444.753906 58.867188 444.230469 58.984375 C 442.675781 59.320312 441.390625 59.496094 439.933594 59.5625 C 439.917969 59.5625 439.902344 59.5625 439.890625 59.5625 C 439.78125 59.5625 439.679688 59.542969 439.582031 59.511719 L 437.429688 60.644531 C 437.289062 60.71875 437.136719 60.753906 436.980469 60.753906 C 436.769531 60.753906 436.558594 60.683594 436.382812 60.546875 C 436.085938 60.308594 435.953125 59.917969 436.050781 59.550781 L 436.0625 59.5 C 435.078125 59.425781 434.136719 59.3125 433.257812 59.15625 C 433.253906 59.15625 433.25 59.15625 433.246094 59.15625 C 432.972656 59.101562 432.695312 59.046875 432.402344 58.984375 C 431.882812 58.867188 431.402344 58.746094 430.933594 58.609375 C 430.398438 58.449219 429.914062 58.28125 429.460938 58.09375 C 429.460938 58.09375 429.457031 58.09375 429.457031 58.089844 C 429.035156 57.914062 428.488281 57.664062 427.953125 57.285156 C 427.808594 57.183594 427.675781 57.078125 427.554688 56.964844 C 427.40625 56.832031 427.277344 56.695312 427.160156 56.546875 C 427.160156 56.546875 427.160156 56.542969 427.15625 56.542969 C 427.007812 56.347656 426.886719 56.140625 426.800781 55.925781 C 426.695312 55.65625 426.640625 55.367188 426.644531 55.085938 L 426.644531 55.078125 C 426.644531 55.023438 426.648438 54.96875 426.65625 54.910156 C 426.714844 54.460938 426.933594 54.039062 427.269531 53.722656 C 427.332031 53.667969 427.398438 53.609375 427.476562 53.542969 C 427.972656 53.132812 428.902344 52.761719 429.550781 52.585938 C 429.605469 52.570312 429.65625 52.558594 429.703125 52.546875 C 429.78125 52.527344 429.863281 52.515625 429.945312 52.515625 C 430.140625 52.515625 430.324219 52.574219 430.480469 52.667969 C 430.640625 52.582031 430.820312 52.53125 431.007812 52.53125 L 431.929688 52.53125 C 431.914062 52.453125 431.902344 52.375 431.902344 52.289062 L 431.902344 51.433594 L 431.195312 51.433594 C 430.882812 51.433594 430.582031 51.300781 430.375 51.070312 C 430.164062 50.835938 430.066406 50.523438 430.101562 50.214844 L 430.105469 50.183594 C 430.195312 49.351562 430.5625 48.667969 431.160156 48.203125 C 431.71875 47.765625 432.390625 47.542969 433.152344 47.542969 C 434.003906 47.542969 434.761719 47.8125 435.347656 48.324219 C 435.894531 48.796875 436.214844 49.410156 436.292969 50.101562 L 437.816406 47.902344 C 437.921875 47.75 438.058594 47.628906 438.21875 47.542969 C 438.378906 47.460938 438.558594 47.417969 438.742188 47.417969 C 438.972656 47.417969 439.195312 47.484375 439.382812 47.617188 L 440.039062 48.070312 C 440.546875 48.421875 440.675781 49.121094 440.328125 49.632812 L 439.925781 50.222656 C 440.023438 50.269531 440.121094 50.324219 440.210938 50.382812 C 440.367188 49.808594 440.609375 49.304688 440.9375 48.882812 C 441.613281 48.007812 442.5 47.542969 443.496094 47.542969 L 443.546875 47.542969 C 444.121094 47.542969 444.644531 47.6875 445.109375 47.960938 C 445.40625 47.261719 446.097656 46.769531 446.902344 46.769531 C 447.972656 46.769531 448.84375 47.640625 448.84375 48.710938 C 448.84375 49.78125 447.972656 50.652344 446.902344 50.652344 C 446.894531 50.652344 446.886719 50.652344 446.878906 50.652344 C 446.972656 51.082031 447.019531 51.542969 447.019531 52.035156 C 447.019531 52.214844 447.011719 52.390625 447 52.5625 C 447.691406 52.738281 448.65625 53.128906 449.15625 53.542969 C 449.238281 53.609375 449.304688 53.667969 449.367188 53.722656 C 449.703125 54.039062 449.917969 54.460938 449.976562 54.910156 C 449.984375 54.96875 449.988281 55.027344 449.992188 55.082031 C 449.992188 55.082031 449.992188 55.085938 449.992188 55.085938 " fill-opacity="1" fill-rule="nonzero"></path></g><g clip-path="url(#4004ef1067)"><path fill="#ecf6ff" d="M 449.304688 54.398438 C 449.308594 54.679688 449.253906 54.96875 449.144531 55.238281 C 449.058594 55.453125 448.9375 55.660156 448.789062 55.855469 C 448.789062 55.855469 448.785156 55.855469 448.785156 55.859375 C 448.667969 56.003906 448.542969 56.144531 448.394531 56.277344 C 448.269531 56.390625 448.136719 56.496094 447.996094 56.597656 C 447.460938 56.976562 446.910156 57.226562 446.488281 57.402344 C 446.488281 57.402344 446.488281 57.40625 446.484375 57.40625 C 446.03125 57.59375 445.550781 57.761719 445.011719 57.921875 C 444.542969 58.058594 444.066406 58.179688 443.542969 58.296875 C 441.988281 58.632812 440.703125 58.808594 439.246094 58.871094 C 439.230469 58.875 439.214844 58.875 439.199219 58.875 C 439.09375 58.875 438.992188 58.855469 438.894531 58.824219 L 436.742188 59.957031 C 436.601562 60.03125 436.449219 60.066406 436.292969 60.066406 C 436.082031 60.066406 435.871094 59.996094 435.695312 59.859375 C 435.398438 59.621094 435.265625 59.230469 435.363281 58.863281 L 435.375 58.808594 C 434.390625 58.738281 433.449219 58.625 432.570312 58.46875 C 432.566406 58.46875 432.5625 58.46875 432.558594 58.46875 C 432.285156 58.414062 432.007812 58.359375 431.714844 58.296875 C 431.195312 58.179688 430.714844 58.058594 430.246094 57.921875 C 429.707031 57.761719 429.226562 57.59375 428.773438 57.40625 C 428.769531 57.402344 428.769531 57.402344 428.769531 57.402344 C 428.347656 57.226562 427.800781 56.976562 427.261719 56.597656 C 427.121094 56.496094 426.988281 56.390625 426.867188 56.277344 C 426.71875 56.144531 426.589844 56.007812 426.472656 55.859375 C 426.472656 55.855469 426.472656 55.855469 426.46875 55.855469 C 426.320312 55.660156 426.199219 55.453125 426.113281 55.238281 C 426.007812 54.96875 425.953125 54.679688 425.957031 54.398438 L 425.957031 54.390625 C 425.957031 54.335938 425.960938 54.28125 425.96875 54.222656 C 426.027344 53.773438 426.246094 53.351562 426.582031 53.035156 C 426.640625 52.980469 426.710938 52.921875 426.789062 52.855469 C 427.285156 52.445312 428.210938 52.070312 428.859375 51.898438 C 428.917969 51.882812 428.964844 51.871094 429.015625 51.859375 C 429.09375 51.839844 429.175781 51.828125 429.257812 51.828125 C 429.453125 51.828125 429.636719 51.886719 429.792969 51.980469 C 429.953125 51.894531 430.132812 51.84375 430.320312 51.84375 L 431.242188 51.84375 C 431.226562 51.765625 431.214844 51.683594 431.214844 51.601562 L 431.214844 50.746094 L 430.507812 50.746094 C 430.191406 50.746094 429.894531 50.613281 429.6875 50.378906 C 429.476562 50.148438 429.378906 49.835938 429.414062 49.523438 L 429.414062 49.496094 C 429.507812 48.664062 429.875 47.980469 430.472656 47.515625 C 431.03125 47.078125 431.703125 46.855469 432.464844 46.855469 C 433.316406 46.855469 434.074219 47.125 434.660156 47.636719 C 435.207031 48.109375 435.527344 48.722656 435.605469 49.414062 L 437.128906 47.214844 C 437.234375 47.0625 437.371094 46.941406 437.53125 46.855469 C 437.691406 46.773438 437.871094 46.726562 438.054688 46.726562 C 438.285156 46.726562 438.507812 46.796875 438.695312 46.929688 L 439.351562 47.382812 C 439.859375 47.734375 439.988281 48.433594 439.640625 48.945312 L 439.238281 49.535156 C 439.335938 49.582031 439.429688 49.636719 439.523438 49.695312 C 439.679688 49.121094 439.921875 48.617188 440.25 48.195312 C 440.925781 47.320312 441.8125 46.855469 442.808594 46.855469 L 442.859375 46.855469 C 443.433594 46.855469 443.957031 47 444.421875 47.273438 C 444.714844 46.574219 445.410156 46.082031 446.214844 46.082031 C 447.285156 46.082031 448.15625 46.953125 448.15625 48.023438 C 448.15625 49.09375 447.285156 49.964844 446.214844 49.964844 C 446.207031 49.964844 446.199219 49.964844 446.191406 49.964844 C 446.285156 50.394531 446.332031 50.855469 446.332031 51.347656 C 446.332031 51.527344 446.324219 51.703125 446.3125 51.875 C 447.003906 52.050781 447.96875 52.441406 448.46875 52.855469 C 448.550781 52.921875 448.617188 52.980469 448.679688 53.035156 C 449.015625 53.351562 449.230469 53.773438 449.289062 54.222656 C 449.296875 54.28125 449.300781 54.339844 449.300781 54.394531 C 449.304688 54.394531 449.304688 54.398438 449.304688 54.398438 " fill-opacity="1" fill-rule="nonzero"></path></g><path fill="#6528f7" d="M 434.824219 52.757812 C 434.824219 53.332031 434.601562 53.835938 434.164062 54.253906 C 433.730469 54.667969 433.207031 54.882812 432.609375 54.882812 C 432.019531 54.882812 431.5 54.730469 431.066406 54.433594 C 430.757812 54.222656 430.523438 53.925781 430.363281 53.546875 C 430.300781 53.410156 430.253906 53.261719 430.214844 53.101562 C 430.207031 53.070312 430.199219 53.039062 430.191406 53.003906 L 430.183594 52.972656 C 430.167969 52.886719 430.230469 52.808594 430.320312 52.808594 L 431.292969 52.808594 C 431.367188 52.808594 431.429688 52.855469 431.449219 52.921875 C 431.476562 53 431.503906 53.070312 431.53125 53.136719 C 431.734375 53.578125 432.070312 53.789062 432.554688 53.789062 C 432.839844 53.789062 433.082031 53.695312 433.292969 53.5 C 433.5 53.304688 433.601562 53.089844 433.601562 52.835938 C 433.601562 52.785156 433.601562 52.734375 433.59375 52.6875 C 433.578125 52.574219 433.546875 52.472656 433.496094 52.367188 C 433.449219 52.273438 433.386719 52.179688 433.308594 52.085938 C 433.121094 51.867188 432.792969 51.75 432.339844 51.738281 L 432.3125 51.738281 C 432.238281 51.738281 432.179688 51.675781 432.179688 51.601562 L 432.179688 50.765625 C 432.179688 50.691406 432.238281 50.632812 432.3125 50.628906 L 432.339844 50.628906 C 432.6875 50.625 432.957031 50.539062 433.148438 50.382812 C 433.332031 50.230469 433.417969 50.039062 433.417969 49.800781 C 433.417969 49.550781 433.335938 49.34375 433.160156 49.171875 C 432.984375 48.996094 432.777344 48.910156 432.527344 48.910156 C 432.289062 48.910156 432.101562 48.96875 431.964844 49.082031 C 431.824219 49.199219 431.707031 49.398438 431.613281 49.671875 L 431.605469 49.691406 C 431.589844 49.746094 431.535156 49.785156 431.476562 49.785156 L 430.507812 49.785156 C 430.425781 49.785156 430.359375 49.714844 430.371094 49.632812 L 430.375 49.601562 C 430.4375 49.027344 430.667969 48.582031 431.0625 48.273438 C 431.449219 47.972656 431.921875 47.820312 432.464844 47.820312 C 433.089844 47.820312 433.613281 48.003906 434.027344 48.359375 C 434.445312 48.726562 434.660156 49.191406 434.660156 49.738281 C 434.660156 50.277344 434.445312 50.71875 434.019531 51.058594 C 433.949219 51.113281 433.953125 51.222656 434.023438 51.277344 C 434.390625 51.542969 434.632812 51.863281 434.746094 52.234375 C 434.773438 52.328125 434.796875 52.425781 434.808594 52.523438 C 434.816406 52.601562 434.824219 52.679688 434.824219 52.757812 " fill-opacity="1" fill-rule="nonzero"></path><path fill="#6528f7" d="M 438.550781 53.296875 C 438.308594 53.539062 438.023438 53.65625 437.675781 53.65625 C 437.324219 53.65625 437.035156 53.539062 436.792969 53.300781 C 436.550781 53.058594 436.429688 52.773438 436.429688 52.425781 C 436.429688 52.417969 436.429688 52.40625 436.429688 52.398438 C 436.433594 52.308594 436.445312 52.21875 436.464844 52.132812 C 436.515625 51.917969 436.628906 51.726562 436.804688 51.550781 C 437.058594 51.296875 437.34375 51.171875 437.675781 51.171875 C 438.011719 51.171875 438.292969 51.296875 438.542969 51.542969 C 438.714844 51.71875 438.824219 51.910156 438.875 52.128906 C 438.894531 52.210938 438.90625 52.296875 438.90625 52.390625 C 438.910156 52.402344 438.910156 52.414062 438.910156 52.425781 C 438.910156 52.769531 438.792969 53.054688 438.550781 53.296875 Z M 440.128906 52.1875 C 440.078125 51.679688 439.839844 51.21875 439.417969 50.824219 C 438.941406 50.375 438.378906 50.148438 437.75 50.148438 L 437.742188 50.148438 L 437.648438 50.152344 L 438.847656 48.402344 C 438.898438 48.328125 438.878906 48.226562 438.804688 48.175781 L 438.148438 47.71875 C 438.074219 47.667969 437.972656 47.6875 437.921875 47.761719 L 435.664062 51.023438 C 435.410156 51.386719 435.261719 51.78125 435.21875 52.199219 C 435.210938 52.28125 435.207031 52.367188 435.207031 52.453125 C 435.207031 52.464844 435.207031 52.472656 435.207031 52.484375 C 435.214844 53.140625 435.457031 53.714844 435.933594 54.183594 C 436.417969 54.65625 437.007812 54.894531 437.6875 54.894531 C 438.367188 54.894531 438.953125 54.652344 439.425781 54.167969 C 439.882812 53.699219 440.121094 53.128906 440.136719 52.464844 C 440.136719 52.441406 440.136719 52.417969 440.136719 52.394531 C 440.136719 52.324219 440.136719 52.257812 440.128906 52.1875 " fill-opacity="1" fill-rule="nonzero"></path><path fill="#6528f7" d="M 443.917969 52.707031 C 443.871094 52.828125 443.816406 52.941406 443.753906 53.050781 C 443.75 53.054688 443.75 53.058594 443.746094 53.0625 C 443.503906 53.460938 443.207031 53.65625 442.839844 53.65625 C 442.449219 53.65625 442.136719 53.460938 441.886719 53.058594 C 441.804688 52.933594 441.738281 52.792969 441.683594 52.640625 C 441.648438 52.539062 441.613281 52.433594 441.589844 52.320312 C 441.523438 52.035156 441.488281 51.71875 441.488281 51.367188 C 441.488281 50.65625 441.621094 50.082031 441.882812 49.652344 C 442.128906 49.246094 442.4375 49.050781 442.820312 49.050781 C 443.1875 49.050781 443.492188 49.25 443.742188 49.660156 C 444.007812 50.09375 444.140625 50.65625 444.140625 51.339844 C 444.140625 51.871094 444.066406 52.328125 443.917969 52.707031 Z M 444.6875 48.824219 C 444.222656 48.160156 443.605469 47.820312 442.859375 47.820312 L 442.808594 47.820312 C 442.109375 47.820312 441.507812 48.144531 441.011719 48.785156 C 440.523438 49.410156 440.277344 50.289062 440.277344 51.398438 C 440.277344 51.679688 440.296875 51.949219 440.335938 52.203125 C 440.351562 52.300781 440.367188 52.394531 440.386719 52.484375 C 440.5 53.019531 440.699219 53.488281 440.988281 53.886719 C 441.46875 54.558594 442.085938 54.894531 442.820312 54.894531 C 443.523438 54.894531 444.136719 54.566406 444.632812 53.914062 C 444.746094 53.769531 444.84375 53.613281 444.929688 53.441406 C 444.996094 53.3125 445.054688 53.179688 445.105469 53.035156 C 445.28125 52.550781 445.371094 51.984375 445.371094 51.347656 C 445.371094 50.324219 445.140625 49.472656 444.6875 48.824219 " fill-opacity="1" fill-rule="nonzero"></path><path fill="#6528f7" d="M 448.339844 54.414062 C 448.34375 54.574219 448.308594 54.738281 448.25 54.878906 C 448.191406 55.023438 448.113281 55.152344 448.027344 55.265625 C 447.941406 55.375 447.84375 55.476562 447.746094 55.566406 C 447.644531 55.65625 447.542969 55.738281 447.4375 55.8125 C 447.015625 56.109375 446.570312 56.324219 446.117188 56.515625 C 445.664062 56.703125 445.203125 56.859375 444.742188 56.996094 C 444.277344 57.132812 443.808594 57.25 443.339844 57.355469 C 441.894531 57.667969 440.667969 57.84375 439.203125 57.910156 L 440.445312 57.21875 L 439.328125 56.675781 C 439.765625 56.664062 439.964844 56.648438 440.402344 56.621094 C 441.324219 56.570312 442.246094 56.488281 443.160156 56.363281 C 443.617188 56.296875 444.070312 56.222656 444.519531 56.125 C 444.964844 56.03125 445.410156 55.917969 445.839844 55.773438 C 446.050781 55.699219 446.261719 55.621094 446.464844 55.53125 C 446.566406 55.488281 446.667969 55.441406 446.761719 55.390625 C 446.859375 55.339844 446.953125 55.285156 447.042969 55.230469 C 447.132812 55.171875 447.21875 55.113281 447.296875 55.046875 C 447.375 54.984375 447.449219 54.917969 447.507812 54.847656 C 447.570312 54.777344 447.617188 54.703125 447.652344 54.628906 C 447.6875 54.558594 447.703125 54.484375 447.707031 54.414062 C 447.710938 54.339844 447.695312 54.265625 447.667969 54.1875 C 447.636719 54.113281 447.59375 54.035156 447.535156 53.957031 C 447.476562 53.882812 447.40625 53.808594 447.328125 53.738281 C 447.253906 53.667969 447.167969 53.601562 447.082031 53.539062 C 446.992188 53.476562 446.898438 53.417969 446.804688 53.359375 C 446.710938 53.304688 446.609375 53.25 446.511719 53.199219 C 446.382812 53.132812 446.140625 53.027344 445.964844 52.953125 C 445.933594 52.9375 445.914062 52.90625 445.917969 52.867188 C 445.921875 52.816406 445.96875 52.78125 446.019531 52.792969 C 446.609375 52.933594 447.476562 53.285156 447.859375 53.597656 C 447.898438 53.632812 447.960938 53.683594 448.019531 53.738281 C 448.191406 53.898438 448.304688 54.113281 448.335938 54.34375 C 448.339844 54.371094 448.339844 54.390625 448.339844 54.414062 " fill-opacity="1" fill-rule="nonzero"></path><path fill="#6528f7" d="M 439.851562 57.230469 L 436.269531 55.597656 L 436.605469 56.6875 C 436.054688 56.675781 435.394531 56.648438 434.851562 56.617188 C 433.929688 56.566406 433.007812 56.484375 432.097656 56.355469 C 431.640625 56.292969 431.1875 56.214844 430.738281 56.117188 C 430.289062 56.023438 429.847656 55.910156 429.417969 55.765625 C 429.207031 55.691406 428.996094 55.613281 428.792969 55.523438 C 428.691406 55.480469 428.59375 55.433594 428.496094 55.382812 C 428.398438 55.332031 428.304688 55.277344 428.214844 55.222656 C 428.125 55.164062 428.042969 55.105469 427.964844 55.042969 C 427.882812 54.976562 427.8125 54.910156 427.753906 54.839844 C 427.691406 54.769531 427.644531 54.699219 427.609375 54.625 C 427.578125 54.554688 427.558594 54.484375 427.554688 54.414062 C 427.554688 54.339844 427.566406 54.269531 427.597656 54.191406 C 427.625 54.117188 427.667969 54.039062 427.726562 53.964844 C 427.785156 53.886719 427.855469 53.816406 427.929688 53.746094 C 428.007812 53.675781 428.089844 53.609375 428.179688 53.546875 C 428.265625 53.484375 428.359375 53.425781 428.453125 53.367188 C 428.550781 53.3125 428.648438 53.257812 428.75 53.207031 C 428.839844 53.160156 428.996094 53.089844 429.097656 53.042969 C 429.109375 53.039062 429.117188 53.03125 429.125 53.027344 C 429.183594 53 429.242188 52.976562 429.292969 52.953125 C 429.324219 52.9375 429.347656 52.90625 429.34375 52.867188 C 429.339844 52.824219 429.300781 52.792969 429.257812 52.792969 C 429.253906 52.792969 429.246094 52.792969 429.238281 52.796875 C 429.199219 52.804688 429.15625 52.816406 429.113281 52.828125 C 428.53125 52.984375 427.753906 53.308594 427.402344 53.597656 C 427.363281 53.628906 427.300781 53.683594 427.238281 53.742188 C 427.066406 53.898438 426.953125 54.113281 426.925781 54.34375 C 426.921875 54.371094 426.917969 54.390625 426.917969 54.414062 C 426.917969 54.574219 426.949219 54.738281 427.007812 54.878906 C 427.066406 55.023438 427.144531 55.152344 427.230469 55.265625 C 427.320312 55.375 427.414062 55.476562 427.515625 55.566406 C 427.613281 55.65625 427.714844 55.738281 427.820312 55.8125 C 428.242188 56.109375 428.691406 56.324219 429.140625 56.515625 C 429.59375 56.703125 430.054688 56.859375 430.519531 56.996094 C 430.984375 57.132812 431.449219 57.25 431.921875 57.355469 C 432.199219 57.414062 432.46875 57.472656 432.738281 57.519531 C 433.8125 57.710938 434.929688 57.828125 436.015625 57.886719 C 436.210938 57.898438 436.410156 57.90625 436.605469 57.914062 L 436.292969 59.105469 L 439.851562 57.230469 " fill-opacity="1" fill-rule="nonzero"></path><path fill="#6528f7" d="M 446.214844 47.4375 C 445.890625 47.4375 445.628906 47.699219 445.628906 48.023438 C 445.628906 48.347656 445.890625 48.609375 446.214844 48.609375 C 446.539062 48.609375 446.800781 48.347656 446.800781 48.023438 C 446.800781 47.699219 446.539062 47.4375 446.214844 47.4375 Z M 446.214844 49 C 445.675781 49 445.234375 48.5625 445.234375 48.023438 C 445.234375 47.484375 445.675781 47.046875 446.214844 47.046875 C 446.753906 47.046875 447.191406 47.484375 447.191406 48.023438 C 447.191406 48.5625 446.753906 49 446.214844 49 " fill-opacity="1" fill-rule="nonzero"></path><path stroke-linecap="butt" transform="matrix(0.75, 0, 0, 0.75, -0.00114066, 34.093685)" fill="none" stroke-linejoin="miter" d="M 47.100482 23.661546 C 48.173399 23.661546 48.444232 24.145921 47.902565 25.114671 L 31.397356 53.843839 L 31.397356 78.802174 C 31.397356 79.599049 30.996314 80.000091 30.199439 80.000091 L 21.590064 80.000091 C 20.777564 80.000091 20.376522 79.599049 20.376522 78.802174 L 20.376522 53.609464 L 3.886938 25.114671 C 3.350479 24.145921 3.616104 23.661546 4.694229 23.661546 L 13.772355 23.661546 C 14.428605 23.661546 14.91298 23.927171 15.22548 24.468838 L 25.933814 43.291755 L 36.647356 24.468838 C 36.959856 23.927171 37.439023 23.661546 38.079648 23.661546 Z M 47.100482 23.661546 " stroke="#ffffff" stroke-width="3.521792" stroke-opacity="1" stroke-miterlimit="4"></path><path stroke-linecap="butt" transform="matrix(0.75, 0, 0, 0.75, 38.872824, 34.093685)" fill="none" stroke-linejoin="miter" d="M 24.008111 80.807383 C 20.247694 80.807383 16.862278 79.895924 13.851861 78.073007 C 10.851861 76.239674 8.466444 73.770924 6.69561 70.666757 C 4.929985 67.546965 4.044568 64.083423 4.044568 60.270923 C 4.044568 56.416756 4.929985 52.932381 6.69561 49.817798 C 8.466444 46.698006 10.851861 44.229256 13.851861 42.406339 C 16.862278 40.58863 20.247694 39.677172 24.008111 39.677172 C 27.758112 39.677172 31.127903 40.58863 34.127904 42.406339 C 37.143529 44.229256 39.534154 46.698006 41.299779 49.817798 C 43.070612 52.932381 43.956029 56.416756 43.956029 60.270923 C 43.956029 64.083423 43.070612 67.546965 41.299779 70.666757 C 39.534154 73.770924 37.143529 76.239674 34.127904 78.073007 C 31.127903 79.895924 27.758112 80.807383 24.008111 80.807383 Z M 24.008111 75.323007 C 26.679986 75.323007 29.081028 74.666757 31.20082 73.359466 C 33.32582 72.046965 35.01332 70.265715 36.273737 68.010507 C 37.54457 65.760507 38.179987 63.177173 38.179987 60.270923 C 38.179987 57.323006 37.54457 54.724048 36.273737 52.468839 C 35.01332 50.213631 33.32582 48.432381 31.20082 47.125089 C 29.081028 45.802172 26.679986 45.140714 24.008111 45.140714 C 21.377903 45.140714 18.987278 45.802172 16.836236 47.125089 C 14.690402 48.432381 12.987277 50.213631 11.726861 52.468839 C 10.471652 54.724048 9.841444 57.323006 9.841444 60.270923 C 9.841444 63.177173 10.471652 65.760507 11.726861 68.010507 C 12.987277 70.265715 14.690402 72.046965 16.836236 73.359466 C 18.987278 74.666757 21.377903 75.323007 24.008111 75.323007 Z M 24.008111 75.323007 " stroke="#ffffff" stroke-width="3.521792" stroke-opacity="1" stroke-miterlimit="4"></path><path stroke-linecap="butt" transform="matrix(0.75, 0, 0, 0.75, 74.849347, 34.093685)" fill="none" stroke-linejoin="miter" d="M 36.883165 40.562589 C 37.68004 40.562589 38.081082 40.958422 38.081082 41.760505 L 38.081082 78.802174 C 38.081082 79.599049 37.68004 80.000091 36.883165 80.000091 L 33.581082 80.000091 C 32.883165 80.000091 32.487331 79.599049 32.383165 78.802174 L 32.044623 73.968841 C 30.71129 75.942799 28.982123 77.619882 26.857123 79.000091 C 24.737331 80.359466 22.252956 81.041758 19.409206 81.041758 C 14.903997 81.041758 11.346705 79.718841 8.742538 77.073007 C 6.148788 74.411549 4.851913 70.448007 4.851913 65.182382 L 4.851913 41.760505 C 4.851913 40.958422 5.247747 40.562589 6.04983 40.562589 L 9.685247 40.562589 C 10.482122 40.562589 10.883164 40.958422 10.883164 41.760505 L 10.883164 64.791757 C 10.883164 68.328215 11.716497 71.041757 13.377955 72.927174 C 15.039414 74.796966 17.346706 75.734466 20.294622 75.734466 C 22.180039 75.734466 23.857123 75.364674 25.325873 74.614674 C 26.805039 73.854257 28.039415 72.927174 29.018581 71.823007 C 30.013373 70.724049 30.768581 69.635507 31.278998 68.56259 C 31.789415 67.489674 32.044623 66.630298 32.044623 65.989673 L 32.044623 41.760505 C 32.044623 40.958422 32.450873 40.562589 33.263373 40.562589 Z M 36.883165 40.562589 " stroke="#ffffff" stroke-width="3.521792" stroke-opacity="1" stroke-miterlimit="4"></path><path stroke-linecap="butt" transform="matrix(0.75, 0, 0, 0.75, 107.324793, 34.093685)" fill="none" stroke-linejoin="miter" d="M 35.426319 41.760505 L 35.426319 44.823006 C 35.426319 45.468839 35.244027 45.979256 34.874236 46.359464 L 10.723193 74.849049 L 34.228402 74.849049 C 35.025277 74.849049 35.426319 75.250091 35.426319 76.052174 L 35.426319 78.802174 C 35.426319 79.599049 35.025277 80.000091 34.228402 80.000091 L 4.848192 80.000091 C 4.035692 80.000091 3.629442 79.599049 3.629442 78.802174 L 3.629442 75.734466 C 3.629442 75.093841 3.822151 74.583424 4.202359 74.203216 L 28.353402 45.708422 L 4.848192 45.708422 C 4.035692 45.708422 3.629442 45.307381 3.629442 44.510506 L 3.629442 41.760505 C 3.629442 40.958422 4.035692 40.562589 4.848192 40.562589 L 34.228402 40.562589 C 35.025277 40.562589 35.426319 40.958422 35.426319 41.760505 Z M 35.426319 41.760505 " stroke="#ffffff" stroke-width="3.521792" stroke-opacity="1" stroke-miterlimit="4"></path><path stroke-linecap="butt" transform="matrix(0.75, 0, 0, 0.75, 136.600997, 34.093685)" fill="none" stroke-linejoin="miter" d="M 42.521589 24.625088 C 42.729923 23.984463 43.183048 23.661546 43.875756 23.661546 L 52.818465 23.661546 C 53.839298 23.661546 54.162215 24.114671 53.782007 25.015713 L 34.229922 79.036549 C 34.005964 79.677174 33.495547 80.000091 32.693464 80.000091 L 24.636172 80.000091 C 23.995547 80.000091 23.542422 79.677174 23.282005 79.036549 L 3.709087 25.015713 C 3.344504 24.114671 3.672629 23.661546 4.693462 23.661546 L 13.615338 23.661546 C 14.308046 23.661546 14.766379 23.984463 14.990338 24.625088 L 28.745547 65.671965 Z M 42.521589 24.625088 " stroke="#ffffff" stroke-width="3.521792" stroke-opacity="1" stroke-miterlimit="4"></path><path stroke-linecap="butt" transform="matrix(0.75, 0, 0, 0.75, 179.700375, 34.093685)" fill="none" stroke-linejoin="miter" d="M 9.113042 31.145921 C 7.988042 31.145921 7.055751 30.77613 6.321376 30.02613 C 5.602626 29.265713 5.24325 28.349046 5.24325 27.27613 C 5.24325 26.203213 5.602626 25.291754 6.321376 24.546963 C 7.055751 23.796963 7.988042 23.427171 9.113042 23.427171 C 10.185959 23.427171 11.087001 23.796963 11.805751 24.546963 C 12.524501 25.291754 12.889084 26.203213 12.889084 27.27613 C 12.889084 28.349046 12.524501 29.265713 11.805751 30.02613 C 11.087001 30.77613 10.185959 31.145921 9.113042 31.145921 Z M 6.050542 41.760505 C 6.050542 40.958422 6.456792 40.562589 7.269292 40.562589 L 10.883876 40.562589 C 11.680751 40.562589 12.081793 40.958422 12.081793 41.760505 L 12.081793 78.802174 C 12.081793 79.599049 11.680751 80.000091 10.883876 80.000091 L 7.269292 80.000091 C 6.456792 80.000091 6.050542 79.599049 6.050542 78.802174 Z M 6.050542 41.760505 " stroke="#ffffff" stroke-width="3.521792" stroke-opacity="1" stroke-miterlimit="4"></path><path stroke-linecap="butt" transform="matrix(0.75, 0, 0, 0.75, 193.282125, 34.093685)" fill="none" stroke-linejoin="miter" d="M 25.696751 40.953214 C 26.118626 41.229255 26.196751 41.661547 25.936334 42.250089 L 24.639459 45.062589 C 24.373834 45.599047 23.899876 45.786547 23.201959 45.630297 C 22.821751 45.526131 22.405084 45.432381 21.946751 45.354256 C 21.488418 45.276131 20.858209 45.239672 20.061334 45.239672 C 17.582167 45.239672 15.498834 46.067797 13.811334 47.734464 C 12.118625 49.385506 11.274875 51.474048 11.274875 54.000089 L 11.274875 78.802174 C 11.274875 79.599049 10.873834 80.000091 10.076959 80.000091 L 6.462375 80.000091 C 5.649875 80.000091 5.243625 79.599049 5.243625 78.802174 L 5.243625 41.760505 C 5.243625 40.958422 5.649875 40.562589 6.462375 40.562589 L 9.686334 40.562589 C 10.379042 40.562589 10.780084 40.958422 10.88425 41.760505 L 11.19675 45.239672 C 12.269667 43.573005 13.629042 42.229255 15.264459 41.208422 C 16.899876 40.187589 18.795709 39.677172 20.941543 39.677172 C 22.936334 39.677172 24.519668 40.104255 25.696751 40.953214 Z M 25.696751 40.953214 " stroke="#ffffff" stroke-width="3.521792" stroke-opacity="1" stroke-miterlimit="4"></path><path stroke-linecap="butt" transform="matrix(0.75, 0, 0, 0.75, 214.047075, 34.093685)" fill="none" stroke-linejoin="miter" d="M 23.359109 40.562589 C 24.161193 40.562589 24.557026 40.958422 24.557026 41.760505 L 24.557026 44.510506 C 24.557026 45.307381 24.161193 45.708422 23.359109 45.708422 L 16.916401 45.708422 L 16.916401 78.802174 C 16.916401 79.599049 16.515359 80.000091 15.718484 80.000091 L 12.083067 80.000091 C 11.280984 80.000091 10.88515 79.599049 10.88515 78.802174 L 10.88515 45.708422 L 4.437233 45.708422 C 3.640358 45.708422 3.239317 45.307381 3.239317 44.510506 L 3.239317 41.760505 C 3.239317 40.958422 3.640358 40.562589 4.437233 40.562589 L 10.88515 40.562589 L 10.88515 29.692796 C 10.88515 28.895921 11.280984 28.49488 12.083067 28.49488 L 15.718484 28.49488 C 16.515359 28.49488 16.916401 28.895921 16.916401 29.692796 L 16.916401 40.562589 Z M 23.359109 40.562589 " stroke="#ffffff" stroke-width="3.521792" stroke-opacity="1" stroke-miterlimit="4"></path><path stroke-linecap="butt" transform="matrix(0.75, 0, 0, 0.75, 234.872436, 34.093685)" fill="none" stroke-linejoin="miter" d="M 36.878421 40.562589 C 37.680505 40.562589 38.081546 40.958422 38.081546 41.760505 L 38.081546 78.802174 C 38.081546 79.599049 37.680505 80.000091 36.878421 80.000091 L 33.581546 80.000091 C 32.883629 80.000091 32.487796 79.599049 32.378421 78.802174 L 32.045088 73.968841 C 30.711754 75.942799 28.982587 77.619882 26.857587 79.000091 C 24.737796 80.359466 22.25342 81.041758 19.40967 81.041758 C 14.904462 81.041758 11.34717 79.718841 8.743003 77.073007 C 6.149253 74.411549 4.847169 70.448007 4.847169 65.182382 L 4.847169 41.760505 C 4.847169 40.958422 5.248211 40.562589 6.050294 40.562589 L 9.685711 40.562589 C 10.482586 40.562589 10.883628 40.958422 10.883628 41.760505 L 10.883628 64.791757 C 10.883628 68.328215 11.716961 71.041757 13.37842 72.927174 C 15.039878 74.796966 17.34717 75.734466 20.295087 75.734466 C 22.180504 75.734466 23.857587 75.364674 25.326337 74.614674 C 26.805504 73.854257 28.039879 72.927174 29.019046 71.823007 C 30.013838 70.724049 30.769046 69.635507 31.279463 68.56259 C 31.789879 67.489674 32.045088 66.630298 32.045088 65.989673 L 32.045088 41.760505 C 32.045088 40.958422 32.451338 40.562589 33.263838 40.562589 Z M 36.878421 40.562589 " stroke="#ffffff" stroke-width="3.521792" stroke-opacity="1" stroke-miterlimit="4"></path><path stroke-linecap="butt" transform="matrix(0.75, 0, 0, 0.75, 301.151295, 34.093685)" fill="none" stroke-linejoin="miter" d="M 5.240982 22.442796 C 5.240982 21.645921 5.647232 21.244879 6.459732 21.244879 L 10.074316 21.244879 C 10.876399 21.244879 11.277441 21.645921 11.277441 22.442796 L 11.277441 78.802174 C 11.277441 79.599049 10.876399 80.000091 10.074316 80.000091 L 6.459732 80.000091 C 5.647232 80.000091 5.240982 79.599049 5.240982 78.802174 Z M 5.240982 22.442796 " stroke="#ffffff" stroke-width="3.521792" stroke-opacity="1" stroke-miterlimit="4"></path><path stroke-linecap="butt" transform="matrix(0.75, 0, 0, 0.75, 313.525795, 34.093685)" fill="none" stroke-linejoin="miter" d="M 40.653109 23.661546 C 41.465609 23.661546 41.871859 24.062588 41.871859 24.859463 L 41.871859 32.187588 C 41.871859 32.989672 41.465609 33.390713 40.653109 33.390713 L 28.507275 33.390713 L 28.507275 78.802174 C 28.507275 79.599049 28.111442 80.000091 27.309358 80.000091 L 18.684358 80.000091 C 17.882274 80.000091 17.486441 79.599049 17.486441 78.802174 L 17.486441 33.390713 L 5.241649 33.390713 C 4.444774 33.390713 4.043732 32.989672 4.043732 32.187588 L 4.043732 24.859463 C 4.043732 24.062588 4.444774 23.661546 5.241649 23.661546 Z M 40.653109 23.661546 " stroke="#ffffff" stroke-width="3.521792" stroke-opacity="1" stroke-miterlimit="4"></path><path stroke-linecap="butt" transform="matrix(0.75, 0, 0, 0.75, 381.736299, 34.093685)" fill="none" stroke-linejoin="miter" d="M 36.882853 40.562589 C 37.679728 40.562589 38.08077 40.958422 38.08077 41.760505 L 38.08077 78.802174 C 38.08077 79.599049 37.679728 80.000091 36.882853 80.000091 L 33.58077 80.000091 C 32.882853 80.000091 32.48702 79.599049 32.382853 78.802174 L 32.044311 73.968841 C 30.710978 75.942799 28.981811 77.619882 26.856811 79.000091 C 24.737019 80.359466 22.252644 81.041758 19.408894 81.041758 C 14.903685 81.041758 11.346394 79.718841 8.742227 77.073007 C 6.148477 74.411549 4.851602 70.448007 4.851602 65.182382 L 4.851602 41.760505 C 4.851602 40.958422 5.247435 40.562589 6.049518 40.562589 L 9.684935 40.562589 C 10.48181 40.562589 10.882852 40.958422 10.882852 41.760505 L 10.882852 64.791757 C 10.882852 68.328215 11.716185 71.041757 13.377644 72.927174 C 15.04431 74.796966 17.346394 75.734466 20.294311 75.734466 C 22.179728 75.734466 23.856811 75.364674 25.325561 74.614674 C 26.804728 73.854257 28.039103 72.927174 29.01827 71.823007 C 30.01827 70.724049 30.76827 69.635507 31.278686 68.56259 C 31.789103 67.489674 32.044311 66.630298 32.044311 65.989673 L 32.044311 41.760505 C 32.044311 40.958422 32.450561 40.562589 33.263061 40.562589 Z M 36.882853 40.562589 " stroke="#ffffff" stroke-width="3.521792" stroke-opacity="1" stroke-miterlimit="4"></path><path stroke-linecap="butt" transform="matrix(0.75, 0, 0, 0.75, 414.211732, 34.093685)" fill="none" stroke-linejoin="miter" d="M 25.696859 40.953214 C 26.118734 41.229255 26.196859 41.661547 25.936443 42.250089 L 24.639568 45.062589 C 24.373943 45.599047 23.899984 45.786547 23.202068 45.630297 C 22.821859 45.526131 22.405193 45.432381 21.946859 45.354256 C 21.488526 45.276131 20.858317 45.239672 20.061442 45.239672 C 17.582276 45.239672 15.498942 46.067797 13.811442 47.734464 C 12.118734 49.385506 11.274984 51.474048 11.274984 54.000089 L 11.274984 78.802174 C 11.274984 79.599049 10.873942 80.000091 10.077067 80.000091 L 6.462483 80.000091 C 5.649983 80.000091 5.243733 79.599049 5.243733 78.802174 L 5.243733 41.760505 C 5.243733 40.958422 5.649983 40.562589 6.462483 40.562589 L 9.686442 40.562589 C 10.37915 40.562589 10.780192 40.958422 10.884359 41.760505 L 11.196859 45.239672 C 12.269775 43.573005 13.62915 42.229255 15.264567 41.208422 C 16.899984 40.187589 18.795817 39.677172 20.941651 39.677172 C 22.936443 39.677172 24.519776 40.104255 25.696859 40.953214 Z M 25.696859 40.953214 " stroke="#ffffff" stroke-width="3.521792" stroke-opacity="1" stroke-miterlimit="4"></path><g fill="#6528f7" fill-opacity="1"><g transform="translate(0.0105781, 94.093682)"><g><path d="M 35.3125 -42.265625 C 36.125 -42.265625 36.328125 -41.898438 35.921875 -41.171875 L 23.546875 -19.625 L 23.546875 -0.90625 C 23.546875 -0.300781 23.242188 0 22.640625 0 L 16.1875 0 C 15.582031 0 15.28125 -0.300781 15.28125 -0.90625 L 15.28125 -19.796875 L 2.890625 -41.171875 C 2.492188 -41.898438 2.695312 -42.265625 3.5 -42.265625 L 10.328125 -42.265625 C 10.804688 -42.265625 11.164062 -42.0625 11.40625 -41.65625 L 19.4375 -27.53125 L 27.46875 -41.65625 C 27.707031 -42.0625 28.070312 -42.265625 28.5625 -42.265625 Z M 35.3125 -42.265625 "></path></g></g></g><g fill="#ffffff" fill-opacity="1"><g transform="translate(38.884543, 94.093682)"><g><path d="M 17.984375 0.609375 C 15.171875 0.609375 12.632812 -0.0703125 10.375 -1.4375 C 8.125 -2.8125 6.332031 -4.664062 5 -7 C 3.675781 -9.332031 3.015625 -11.929688 3.015625 -14.796875 C 3.015625 -17.691406 3.675781 -20.304688 5 -22.640625 C 6.332031 -24.972656 8.125 -26.820312 10.375 -28.1875 C 12.632812 -29.5625 15.171875 -30.25 17.984375 -30.25 C 20.804688 -30.25 23.34375 -29.5625 25.59375 -28.1875 C 27.851562 -26.820312 29.644531 -24.972656 30.96875 -22.640625 C 32.300781 -20.304688 32.96875 -17.691406 32.96875 -14.796875 C 32.96875 -11.929688 32.300781 -9.332031 30.96875 -7 C 29.644531 -4.664062 27.851562 -2.8125 25.59375 -1.4375 C 23.34375 -0.0703125 20.804688 0.609375 17.984375 0.609375 Z M 17.984375 -3.5 C 20.003906 -3.5 21.804688 -3.988281 23.390625 -4.96875 C 24.984375 -5.957031 26.253906 -7.296875 27.203125 -8.984375 C 28.148438 -10.679688 28.625 -12.617188 28.625 -14.796875 C 28.625 -17.003906 28.148438 -18.953125 27.203125 -20.640625 C 26.253906 -22.335938 24.984375 -23.675781 23.390625 -24.65625 C 21.804688 -25.644531 20.003906 -26.140625 17.984375 -26.140625 C 16.015625 -26.140625 14.222656 -25.644531 12.609375 -24.65625 C 11.003906 -23.675781 9.726562 -22.335938 8.78125 -20.640625 C 7.832031 -18.953125 7.359375 -17.003906 7.359375 -14.796875 C 7.359375 -12.617188 7.832031 -10.679688 8.78125 -8.984375 C 9.726562 -7.296875 11.003906 -5.957031 12.609375 -4.96875 C 14.222656 -3.988281 16.015625 -3.5 17.984375 -3.5 Z M 17.984375 -3.5 "></path></g></g></g><g fill="#ffffff" fill-opacity="1"><g transform="translate(74.861065, 94.093682)"><g><path d="M 27.65625 -29.578125 C 28.257812 -29.578125 28.5625 -29.273438 28.5625 -28.671875 L 28.5625 -0.90625 C 28.5625 -0.300781 28.257812 0 27.65625 0 L 25.171875 0 C 24.648438 0 24.347656 -0.300781 24.265625 -0.90625 L 24.03125 -4.53125 C 23.019531 -3.039062 21.71875 -1.78125 20.125 -0.75 C 18.539062 0.269531 16.679688 0.78125 14.546875 0.78125 C 11.171875 0.78125 8.503906 -0.210938 6.546875 -2.203125 C 4.597656 -4.191406 3.625 -7.160156 3.625 -11.109375 L 3.625 -28.671875 C 3.625 -29.273438 3.925781 -29.578125 4.53125 -29.578125 L 7.25 -29.578125 C 7.851562 -29.578125 8.15625 -29.273438 8.15625 -28.671875 L 8.15625 -11.40625 C 8.15625 -8.75 8.773438 -6.71875 10.015625 -5.3125 C 11.265625 -3.90625 13 -3.203125 15.21875 -3.203125 C 16.625 -3.203125 17.878906 -3.484375 18.984375 -4.046875 C 20.085938 -4.609375 21.007812 -5.300781 21.75 -6.125 C 22.5 -6.945312 23.066406 -7.757812 23.453125 -8.5625 C 23.835938 -9.375 24.03125 -10.019531 24.03125 -10.5 L 24.03125 -28.671875 C 24.03125 -29.273438 24.332031 -29.578125 24.9375 -29.578125 Z M 27.65625 -29.578125 "></path></g></g></g><g fill="#ffffff" fill-opacity="1"><g transform="translate(107.336512, 94.093682)"><g><path d="M 26.5625 -28.671875 L 26.5625 -26.390625 C 26.5625 -25.898438 26.421875 -25.515625 26.140625 -25.234375 L 8.03125 -3.859375 L 25.65625 -3.859375 C 26.257812 -3.859375 26.5625 -3.554688 26.5625 -2.953125 L 26.5625 -0.90625 C 26.5625 -0.300781 26.257812 0 25.65625 0 L 3.625 0 C 3.019531 0 2.71875 -0.300781 2.71875 -0.90625 L 2.71875 -3.203125 C 2.71875 -3.679688 2.859375 -4.0625 3.140625 -4.34375 L 21.25 -25.71875 L 3.625 -25.71875 C 3.019531 -25.71875 2.71875 -26.019531 2.71875 -26.625 L 2.71875 -28.671875 C 2.71875 -29.273438 3.019531 -29.578125 3.625 -29.578125 L 25.65625 -29.578125 C 26.257812 -29.578125 26.5625 -29.273438 26.5625 -28.671875 Z M 26.5625 -28.671875 "></path></g></g></g><g fill="#6528f7" fill-opacity="1"><g transform="translate(136.612716, 94.093682)"><g><path d="M 31.875 -41.53125 C 32.039062 -42.019531 32.382812 -42.265625 32.90625 -42.265625 L 39.609375 -42.265625 C 40.367188 -42.265625 40.609375 -41.921875 40.328125 -41.234375 L 25.65625 -0.71875 C 25.5 -0.238281 25.117188 0 24.515625 0 L 18.46875 0 C 17.988281 0 17.648438 -0.238281 17.453125 -0.71875 L 2.78125 -41.234375 C 2.5 -41.921875 2.738281 -42.265625 3.5 -42.265625 L 10.203125 -42.265625 C 10.722656 -42.265625 11.066406 -42.019531 11.234375 -41.53125 L 21.546875 -10.75 Z M 31.875 -41.53125 "></path></g></g></g><g fill="#ffffff" fill-opacity="1"><g transform="translate(179.712094, 94.093682)"><g><path d="M 6.828125 -36.640625 C 5.972656 -36.640625 5.273438 -36.921875 4.734375 -37.484375 C 4.191406 -38.054688 3.921875 -38.742188 3.921875 -39.546875 C 3.921875 -40.347656 4.191406 -41.03125 4.734375 -41.59375 C 5.273438 -42.15625 5.972656 -42.4375 6.828125 -42.4375 C 7.628906 -42.4375 8.300781 -42.15625 8.84375 -41.59375 C 9.382812 -41.03125 9.65625 -40.347656 9.65625 -39.546875 C 9.65625 -38.742188 9.382812 -38.054688 8.84375 -37.484375 C 8.300781 -36.921875 7.628906 -36.640625 6.828125 -36.640625 Z M 4.53125 -28.671875 C 4.53125 -29.273438 4.832031 -29.578125 5.4375 -29.578125 L 8.15625 -29.578125 C 8.757812 -29.578125 9.0625 -29.273438 9.0625 -28.671875 L 9.0625 -0.90625 C 9.0625 -0.300781 8.757812 0 8.15625 0 L 5.4375 0 C 4.832031 0 4.53125 -0.300781 4.53125 -0.90625 Z M 4.53125 -28.671875 "></path></g></g></g><g fill="#ffffff" fill-opacity="1"><g transform="translate(193.293844, 94.093682)"><g><path d="M 19.265625 -29.28125 C 19.585938 -29.082031 19.644531 -28.757812 19.4375 -28.3125 L 18.46875 -26.203125 C 18.269531 -25.796875 17.910156 -25.65625 17.390625 -25.78125 C 17.109375 -25.863281 16.796875 -25.929688 16.453125 -25.984375 C 16.109375 -26.046875 15.632812 -26.078125 15.03125 -26.078125 C 13.175781 -26.078125 11.613281 -25.453125 10.34375 -24.203125 C 9.082031 -22.960938 8.453125 -21.394531 8.453125 -19.5 L 8.453125 -0.90625 C 8.453125 -0.300781 8.148438 0 7.546875 0 L 4.828125 0 C 4.222656 0 3.921875 -0.300781 3.921875 -0.90625 L 3.921875 -28.671875 C 3.921875 -29.273438 4.222656 -29.578125 4.828125 -29.578125 L 7.25 -29.578125 C 7.769531 -29.578125 8.070312 -29.273438 8.15625 -28.671875 L 8.390625 -26.078125 C 9.191406 -27.328125 10.207031 -28.332031 11.4375 -29.09375 C 12.664062 -29.863281 14.085938 -30.25 15.703125 -30.25 C 17.191406 -30.25 18.378906 -29.925781 19.265625 -29.28125 Z M 19.265625 -29.28125 "></path></g></g></g><g fill="#ffffff" fill-opacity="1"><g transform="translate(214.058794, 94.093682)"><g><path d="M 17.515625 -29.578125 C 18.117188 -29.578125 18.421875 -29.273438 18.421875 -28.671875 L 18.421875 -26.625 C 18.421875 -26.019531 18.117188 -25.71875 17.515625 -25.71875 L 12.671875 -25.71875 L 12.671875 -0.90625 C 12.671875 -0.300781 12.367188 0 11.765625 0 L 9.0625 0 C 8.457031 0 8.15625 -0.300781 8.15625 -0.90625 L 8.15625 -25.71875 L 3.328125 -25.71875 C 2.722656 -25.71875 2.421875 -26.019531 2.421875 -26.625 L 2.421875 -28.671875 C 2.421875 -29.273438 2.722656 -29.578125 3.328125 -29.578125 L 8.15625 -29.578125 L 8.15625 -37.734375 C 8.15625 -38.335938 8.457031 -38.640625 9.0625 -38.640625 L 11.765625 -38.640625 C 12.367188 -38.640625 12.671875 -38.335938 12.671875 -37.734375 L 12.671875 -29.578125 Z M 17.515625 -29.578125 "></path></g></g></g><g fill="#ffffff" fill-opacity="1"><g transform="translate(234.884154, 94.093682)"><g><path d="M 27.65625 -29.578125 C 28.257812 -29.578125 28.5625 -29.273438 28.5625 -28.671875 L 28.5625 -0.90625 C 28.5625 -0.300781 28.257812 0 27.65625 0 L 25.171875 0 C 24.648438 0 24.347656 -0.300781 24.265625 -0.90625 L 24.03125 -4.53125 C 23.019531 -3.039062 21.71875 -1.78125 20.125 -0.75 C 18.539062 0.269531 16.679688 0.78125 14.546875 0.78125 C 11.171875 0.78125 8.503906 -0.210938 6.546875 -2.203125 C 4.597656 -4.191406 3.625 -7.160156 3.625 -11.109375 L 3.625 -28.671875 C 3.625 -29.273438 3.925781 -29.578125 4.53125 -29.578125 L 7.25 -29.578125 C 7.851562 -29.578125 8.15625 -29.273438 8.15625 -28.671875 L 8.15625 -11.40625 C 8.15625 -8.75 8.773438 -6.71875 10.015625 -5.3125 C 11.265625 -3.90625 13 -3.203125 15.21875 -3.203125 C 16.625 -3.203125 17.878906 -3.484375 18.984375 -4.046875 C 20.085938 -4.609375 21.007812 -5.300781 21.75 -6.125 C 22.5 -6.945312 23.066406 -7.757812 23.453125 -8.5625 C 23.835938 -9.375 24.03125 -10.019531 24.03125 -10.5 L 24.03125 -28.671875 C 24.03125 -29.273438 24.332031 -29.578125 24.9375 -29.578125 Z M 27.65625 -29.578125 "></path></g></g></g><g fill="#ffffff" fill-opacity="1"><g transform="translate(267.359606, 94.093682)"><g></g></g></g><g fill="#ffffff" fill-opacity="1"><g transform="translate(284.261324, 94.093682)"><g></g></g></g><g fill="#ffffff" fill-opacity="1"><g transform="translate(301.163014, 94.093682)"><g><path d="M 3.921875 -43.171875 C 3.921875 -43.773438 4.222656 -44.078125 4.828125 -44.078125 L 7.546875 -44.078125 C 8.148438 -44.078125 8.453125 -43.773438 8.453125 -43.171875 L 8.453125 -0.90625 C 8.453125 -0.300781 8.148438 0 7.546875 0 L 4.828125 0 C 4.222656 0 3.921875 -0.300781 3.921875 -0.90625 Z M 3.921875 -43.171875 "></path></g></g></g><g fill="#6528f7" fill-opacity="1"><g transform="translate(313.537514, 94.093682)"><g><path d="M 30.484375 -42.265625 C 31.085938 -42.265625 31.390625 -41.960938 31.390625 -41.359375 L 31.390625 -35.859375 C 31.390625 -35.253906 31.085938 -34.953125 30.484375 -34.953125 L 21.375 -34.953125 L 21.375 -0.90625 C 21.375 -0.300781 21.070312 0 20.46875 0 L 14 0 C 13.394531 0 13.09375 -0.300781 13.09375 -0.90625 L 13.09375 -34.953125 L 3.921875 -34.953125 C 3.316406 -34.953125 3.015625 -35.253906 3.015625 -35.859375 L 3.015625 -41.359375 C 3.015625 -41.960938 3.316406 -42.265625 3.921875 -42.265625 Z M 30.484375 -42.265625 "></path></g></g></g><g fill="#7ed957" fill-opacity="1"><g transform="translate(347.944584, 94.093682)"><g></g></g></g><g fill="#7ed957" fill-opacity="1"><g transform="translate(364.846302, 94.093682)"><g></g></g></g><g fill="#ffffff" fill-opacity="1"><g transform="translate(381.748018, 94.093682)"><g><path d="M 27.65625 -29.578125 C 28.257812 -29.578125 28.5625 -29.273438 28.5625 -28.671875 L 28.5625 -0.90625 C 28.5625 -0.300781 28.257812 0 27.65625 0 L 25.171875 0 C 24.648438 0 24.347656 -0.300781 24.265625 -0.90625 L 24.03125 -4.53125 C 23.019531 -3.039062 21.71875 -1.78125 20.125 -0.75 C 18.539062 0.269531 16.679688 0.78125 14.546875 0.78125 C 11.171875 0.78125 8.503906 -0.210938 6.546875 -2.203125 C 4.597656 -4.191406 3.625 -7.160156 3.625 -11.109375 L 3.625 -28.671875 C 3.625 -29.273438 3.925781 -29.578125 4.53125 -29.578125 L 7.25 -29.578125 C 7.851562 -29.578125 8.15625 -29.273438 8.15625 -28.671875 L 8.15625 -11.40625 C 8.15625 -8.75 8.773438 -6.71875 10.015625 -5.3125 C 11.265625 -3.90625 13 -3.203125 15.21875 -3.203125 C 16.625 -3.203125 17.878906 -3.484375 18.984375 -4.046875 C 20.085938 -4.609375 21.007812 -5.300781 21.75 -6.125 C 22.5 -6.945312 23.066406 -7.757812 23.453125 -8.5625 C 23.835938 -9.375 24.03125 -10.019531 24.03125 -10.5 L 24.03125 -28.671875 C 24.03125 -29.273438 24.332031 -29.578125 24.9375 -29.578125 Z M 27.65625 -29.578125 "></path></g></g></g><g fill="#ffffff" fill-opacity="1"><g transform="translate(414.22345, 94.093682)"><g><path d="M 19.265625 -29.28125 C 19.585938 -29.082031 19.644531 -28.757812 19.4375 -28.3125 L 18.46875 -26.203125 C 18.269531 -25.796875 17.910156 -25.65625 17.390625 -25.78125 C 17.109375 -25.863281 16.796875 -25.929688 16.453125 -25.984375 C 16.109375 -26.046875 15.632812 -26.078125 15.03125 -26.078125 C 13.175781 -26.078125 11.613281 -25.453125 10.34375 -24.203125 C 9.082031 -22.960938 8.453125 -21.394531 8.453125 -19.5 L 8.453125 -0.90625 C 8.453125 -0.300781 8.148438 0 7.546875 0 L 4.828125 0 C 4.222656 0 3.921875 -0.300781 3.921875 -0.90625 L 3.921875 -28.671875 C 3.921875 -29.273438 4.222656 -29.578125 4.828125 -29.578125 L 7.25 -29.578125 C 7.769531 -29.578125 8.070312 -29.273438 8.15625 -28.671875 L 8.390625 -26.078125 C 9.191406 -27.328125 10.207031 -28.332031 11.4375 -29.09375 C 12.664062 -29.863281 14.085938 -30.25 15.703125 -30.25 C 17.191406 -30.25 18.378906 -29.925781 19.265625 -29.28125 Z M 19.265625 -29.28125 "></path></g></g></g><g clip-path="url(#f2aee6b63b)"><path fill="#ffffff" d="M 56.523438 62.0625 C 46.5 62.0625 38.371094 70.1875 38.371094 80.210938 C 38.371094 90.234375 46.5 98.359375 56.523438 98.359375 C 66.546875 98.359375 74.671875 90.234375 74.671875 80.210938 C 74.671875 70.1875 66.546875 62.0625 56.523438 62.0625 Z M 56.523438 95.09375 C 48.316406 95.09375 41.640625 88.417969 41.640625 80.210938 C 41.640625 72.003906 48.316406 65.328125 56.523438 65.328125 C 64.730469 65.328125 71.40625 72.003906 71.40625 80.210938 C 71.40625 88.417969 64.730469 95.09375 56.523438 95.09375 Z M 56.523438 95.09375 " fill-opacity="1" fill-rule="nonzero"></path></g><path fill="#6528f7" d="M 56.523438 65.328125 C 48.316406 65.328125 41.640625 72.003906 41.640625 80.210938 C 41.640625 88.417969 48.316406 95.09375 56.523438 95.09375 C 64.730469 95.09375 71.40625 88.417969 71.40625 80.210938 C 71.40625 72.003906 64.730469 65.328125 56.523438 65.328125 Z M 56.523438 65.328125 " fill-opacity="1" fill-rule="nonzero"></path><path fill="#ffffff" d="M 56.523438 72.722656 L 63.007812 76.464844 L 63.007812 83.957031 L 56.523438 87.699219 L 50.035156 83.957031 L 50.035156 76.464844 Z M 56.523438 72.722656 " fill-opacity="1" fill-rule="nonzero"></path><g clip-path="url(#539d8915aa)"><path fill="#ffffff" d="M 67.035156 89.257812 C 63.871094 89.257812 60.757812 88.660156 57.84375 87.539062 C 64.71875 84.46875 70.109375 78.492188 72.40625 71.300781 L 71.308594 70.949219 C 69.871094 75.453125 67.164062 79.453125 63.621094 82.507812 C 63.6875 81.746094 63.730469 80.976562 63.730469 80.210938 C 63.730469 73.453125 61.195312 67.007812 56.59375 62.0625 L 55.75 62.847656 C 58.964844 66.300781 61.121094 70.523438 62.050781 75.066406 C 57.660156 72.109375 52.5625 70.550781 47.210938 70.550781 C 45.003906 70.550781 42.808594 70.820312 40.683594 71.355469 L 40.964844 72.472656 C 42.996094 71.960938 45.097656 71.703125 47.210938 71.703125 C 49.925781 71.703125 52.570312 72.132812 55.085938 72.945312 C 48.3125 75.847656 43.050781 81.394531 40.527344 88.378906 L 41.613281 88.773438 C 43.246094 84.253906 46.074219 80.363281 49.738281 77.460938 C 49.554688 78.730469 49.460938 80.015625 49.460938 81.304688 C 49.460938 87.566406 51.675781 93.652344 55.699219 98.441406 L 56.582031 97.699219 C 53.519531 94.058594 51.558594 89.625 50.878906 84.949219 C 55.503906 88.480469 61.1875 90.410156 67.035156 90.410156 C 68.609375 90.410156 70.183594 90.273438 71.71875 90 L 71.515625 88.867188 C 70.050781 89.125 68.542969 89.257812 67.035156 89.257812 Z M 50.613281 81.304688 C 50.613281 79.679688 50.769531 78.058594 51.074219 76.476562 C 52.800781 75.28125 54.691406 74.292969 56.707031 73.542969 C 58.691406 74.339844 60.578125 75.386719 62.335938 76.683594 C 62.492188 77.84375 62.578125 79.023438 62.578125 80.210938 C 62.578125 81.324219 62.5 82.441406 62.355469 83.539062 C 60.527344 84.921875 58.511719 86.0625 56.359375 86.910156 C 54.332031 85.976562 52.429688 84.777344 50.699219 83.328125 C 50.644531 82.65625 50.613281 81.980469 50.613281 81.304688 Z M 50.613281 81.304688 " fill-opacity="1" fill-rule="nonzero"></path></g><g clip-path="url(#da84832b7d)"><path fill="#ffffff" d="M 364.445312 92.039062 C 358.195312 91.964844 353.136719 86.855469 353.136719 80.589844 C 353.136719 76.429688 355.386719 72.605469 359.019531 70.582031 L 356.921875 66.691406 C 351.859375 69.488281 348.71875 74.804688 348.71875 80.589844 C 348.71875 89.289062 355.757812 96.378906 364.441406 96.457031 C 364.523438 96.460938 364.589844 96.390625 364.589844 96.308594 L 364.589844 92.1875 C 364.589844 92.105469 364.527344 92.042969 364.445312 92.039062 Z M 372.601562 94.289062 L 370.503906 90.398438 C 373.933594 88.328125 376.042969 84.613281 376.042969 80.589844 C 376.042969 74.320312 370.984375 69.214844 364.734375 69.136719 C 364.65625 69.136719 364.589844 69.070312 364.589844 68.992188 L 364.589844 64.867188 C 364.589844 64.785156 364.65625 64.71875 364.738281 64.71875 C 373.421875 64.796875 380.460938 71.886719 380.460938 80.589844 C 380.460938 86.238281 377.460938 91.445312 372.601562 94.289062 " fill-opacity="1" fill-rule="nonzero"></path></g><g clip-path="url(#6ca9b7cf10)"><path fill="#ffffff" d="M 360.578125 73.46875 L 362.464844 66.152344 L 355.316406 63.710938 L 356.921875 66.691406 L 359.019531 70.582031 Z M 370.503906 90.398438 L 372.601562 94.289062 L 374.148438 97.15625 L 366.996094 94.714844 L 368.886719 87.398438 L 370.503906 90.398438 " fill-opacity="1" fill-rule="nonzero"></path></g><g clip-path="url(#0681d8508f)"><path fill="#ffffff" d="M 284.960938 63.363281 C 275.640625 63.363281 268.0625 70.945312 268.0625 80.261719 C 268.0625 89.582031 275.640625 97.160156 284.960938 97.160156 C 294.277344 97.160156 301.859375 89.582031 301.859375 80.261719 C 301.859375 70.945312 294.277344 63.363281 284.960938 63.363281 Z M 296.226562 84.273438 C 296.226562 84.914062 295.878906 85.503906 295.316406 85.8125 C 295.054688 85.960938 294.757812 86.035156 294.464844 86.035156 C 294.140625 86.035156 293.816406 85.945312 293.53125 85.765625 L 290.59375 83.929688 L 290.59375 84.136719 C 290.59375 85.882812 289.171875 87.304688 287.421875 87.304688 L 276.863281 87.304688 C 275.117188 87.304688 273.695312 85.882812 273.695312 84.136719 L 273.695312 76.390625 C 273.695312 74.644531 275.117188 73.222656 276.863281 73.222656 L 287.421875 73.222656 C 289.171875 73.222656 290.59375 74.644531 290.59375 76.390625 L 290.59375 76.597656 L 293.53125 74.757812 C 294.078125 74.421875 294.757812 74.40625 295.320312 74.714844 C 295.878906 75.023438 296.226562 75.613281 296.226562 76.253906 Z M 296.226562 84.273438 " fill-opacity="1" fill-rule="nonzero"></path></g></svg>